<?xml version="1.0" encoding="utf-8"?>
<!-- Generator: Adobe Illustrator 24.2.0, SVG Export Plug-In . SVG Version: 6.00 Build 0)  -->
<svg version="1.1" id="Layer_1" xmlns="http://www.w3.org/2000/svg" xmlns:xlink="http://www.w3.org/1999/xlink" x="0px" y="0px"
	 viewBox="0 0 108 108" style="enable-background:new 0 0 108 108;" xml:space="preserve">
<style type="text/css">
	.st0{fill:#00508C;}
	.st1{fill-rule:evenodd;clip-rule:evenodd;fill:#00508C;}
</style>
<g>
	<polygon class="st0" points="53.3,52 41.1,47.4 41.1,59.1 53.3,63.6 	"/>
	<polygon class="st0" points="87.8,52 87.8,63.6 100,59.1 100,47.4 	"/>
	<polygon class="st0" points="53.3,38 41.1,33.4 41.1,45.1 53.3,49.6 	"/>
	<polygon class="st0" points="87.8,38 87.8,49.6 100,45.1 100,33.4 	"/>
	<polygon class="st0" points="68.6,17.6 56.4,13.1 56.4,24.8 68.6,29.3 	"/>
	<polygon class="st0" points="87.8,24 87.8,35.6 100,31.1 100,19.4 	"/>
	<polygon class="st1" points="86,22.3 100,17.1 86.5,12.1 84.2,13 73.4,17.3 	"/>
	<polygon class="st1" points="57.7,11.1 70.6,16.2 83.4,11.1 83.6,11 70.6,6.2 57.6,11 	"/>
	<polygon class="st1" points="41.6,31.3 54.4,36.2 67.3,31.3 67.4,31.2 54.4,26.6 41.4,31.2 	"/>
	<polygon class="st0" points="85.6,38.5 72.8,33.7 71.3,33.2 71.3,44.9 85.6,50.2 	"/>
	<polygon class="st0" points="85.6,24.5 72.8,19.7 71.3,19.2 71.3,30.9 85.6,36.2 	"/>
	<polygon class="st1" points="70.6,46.6 58,51.6 70.6,56.2 83.1,51.6 	"/>
	<polygon class="st0" points="69.7,58.3 56.8,53.5 55.4,53 55.4,64.6 69.7,69.9 	"/>
	<polygon class="st0" points="84.3,53.5 71.7,58.1 71.7,69.8 85.7,64.6 85.7,53 	"/>
	<polygon class="st1" points="20.5,54.2 10.2,59.1 20.5,63.8 30.8,59.1 	"/>
	<polygon class="st0" points="19.8,65.8 9.2,61 8,60.5 8,72.1 19.8,77.4 	"/>
	<polygon class="st0" points="31.9,61 21.5,65.7 21.5,77.3 33,72.1 33,60.5 	"/>
	<polygon class="st1" points="23.4,78.5 13.1,83.5 23.4,88.2 33.7,83.5 	"/>
	<polygon class="st0" points="22.7,90.2 12.1,85.4 10.9,84.9 10.9,96.5 22.7,101.8 	"/>
	<polygon class="st0" points="34.7,85.4 24.4,90.1 24.4,101.7 35.9,96.5 35.9,84.9 	"/>
	<polygon class="st1" points="53.1,69.9 42.8,74.9 53.1,79.5 63.4,74.9 	"/>
	<polygon class="st0" points="52.4,81.6 41.8,76.8 40.6,76.3 40.6,87.9 52.4,93.2 	"/>
	<polygon class="st0" points="64.4,76.8 54.1,81.4 54.1,93.1 65.6,87.9 65.6,76.3 	"/>
	<polygon class="st0" points="68.1,33.3 55.5,38 55.5,49.6 69.5,44.4 69.5,32.8 	"/>
</g>
</svg>
